<svg width="24" height="24" viewBox="0 0 24 24" fill="none" xmlns="http://www.w3.org/2000/svg">
<path d="M1.996 6.49597C1.996 5.3025 2.47011 4.1579 3.31402 3.31399C4.15794 2.47008 5.30253 1.99597 6.496 1.99597H11.504C12.6672 1.99614 13.7852 2.44674 14.6235 3.25328C15.4617 4.05981 15.955 5.1596 16 6.32197V11.676C15.9653 12.5771 15.6608 13.447 15.1259 14.1731C14.591 14.8991 13.8504 15.4478 13 15.748L13.004 6.49597C13.004 6.09815 12.846 5.71662 12.5647 5.43531C12.2834 5.15401 11.9018 4.99597 11.504 4.99597H6.496C6.09818 4.99597 5.71665 5.15401 5.43534 5.43531C5.15404 5.71662 4.996 6.09815 4.996 6.49597V11.504C4.996 12.158 5.416 12.714 6 12.92V15.976C4.89926 15.8539 3.88219 15.3302 3.14344 14.5051C2.40469 13.68 1.99615 12.6115 1.996 11.504V6.49597ZM8 17.5C8 18.6934 8.47411 19.838 9.31802 20.682C10.1619 21.5259 11.3065 22 12.5 22H17.5C18.6935 22 19.8381 21.5259 20.682 20.682C21.5259 19.838 22 18.6934 22 17.5V12.5C22 11.3931 21.592 10.3251 20.8541 9.50006C20.1161 8.67505 19.1 8.15096 18 8.02797V11.086C18.582 11.292 19 11.846 19 12.5V17.5C19 17.8978 18.842 18.2793 18.5607 18.5606C18.2794 18.8419 17.8978 19 17.5 19H12.5C12.1022 19 11.7206 18.8419 11.4393 18.5606C11.158 18.2793 11 17.8978 11 17.5V8.25597C10.1224 8.56624 9.36266 9.14101 8.82537 9.90109C8.28809 10.6612 7.99972 11.5692 8 12.5V17.5Z" fill="black"/>
</svg>
